<svg width="48" height="48" viewBox="0 0 48 48" fill="none" xmlns="http://www.w3.org/2000/svg">
<path d="M12 31.0004H14M12 37.0004H14M34 37.0004H36M34 31.0004H36M20 44.0004V36.0004C20 33.7912 21.7908 32.0004 24 32.0004C26.2092 32.0004 28 33.7912 28 36.0004V44.0004M24 10H33.68C33.792 10 33.848 10 33.8908 9.9782C33.9284 9.95902 33.959 9.92844 33.9782 9.8908C34 9.84802 34 9.79202 34 9.68V4.32C34 4.20798 34 4.15198 33.9782 4.1092C33.959 4.07156 33.9284 4.04098 33.8908 4.0218C33.848 4 33.792 4 33.68 4H24.32C24.208 4 24.152 4 24.1092 4.0218C24.0716 4.04098 24.041 4.07156 24.0218 4.1092C24 4.15198 24 4.20798 24 4.32V10ZM24 10V15.3818M24 15.3818C24.3894 15.3818 24.779 15.4387 25.1558 15.5525C26.0114 15.8107 26.7682 16.4917 28.2814 17.8536L34 23.0004L37.1522 23.7884C38.8856 24.2218 39.7522 24.4384 40.3976 24.9216C40.9668 25.348 41.4122 25.9184 41.6878 26.5742C42 27.3174 42 28.2106 42 29.9974V37.6004C42 39.8406 42 40.9608 41.564 41.8164C41.1806 42.569 40.5686 43.181 39.816 43.5644C38.9604 44.0004 37.8402 44.0004 35.6 44.0004H12.4C10.1598 44.0004 9.03968 44.0004 8.18404 43.5644C7.43138 43.181 6.81946 42.569 6.43598 41.8164C6 40.9608 6 39.8406 6 37.6004V29.9974C6 28.2106 6 27.3174 6.31226 26.5742C6.58776 25.9184 7.03314 25.348 7.60248 24.9216C8.24778 24.4384 9.11444 24.2218 10.8478 23.7884L14 23.0004L19.7186 17.8536C21.2318 16.4917 21.9886 15.8107 22.8442 15.5525C23.221 15.4387 23.6106 15.3818 24 15.3818ZM24.06 24.5H24.075M24.06 26C23.2316 26 22.56 25.3284 22.56 24.5C22.56 23.6716 23.2316 23 24.06 23C24.8884 23 25.56 23.6716 25.56 24.5C25.56 25.3284 24.8884 26 24.06 26Z" stroke="#FFDDD7" stroke-width="2" stroke-linecap="round" stroke-linejoin="round"/>
</svg>
